<svg width="256" height="256" viewBox="0 0 256 256" fill="none" xmlns="http://www.w3.org/2000/svg" role="img" aria-label="SoundFit logo">
  <defs>
    <linearGradient id="sf-bg" x1="38" y1="30" x2="222" y2="232" gradientUnits="userSpaceOnUse">
      <stop stop-color="#102033"/>
      <stop offset="1" stop-color="#050A12"/>
    </linearGradient>
    <linearGradient id="sf-aqua" x1="54" y1="62" x2="197" y2="201" gradientUnits="userSpaceOnUse">
      <stop stop-color="#7AF8DF"/>
      <stop offset="0.48" stop-color="#22D3EE"/>
      <stop offset="1" stop-color="#2563EB"/>
    </linearGradient>
  </defs>
  <rect width="256" height="256" rx="56" fill="url(#sf-bg)"/>
  <circle cx="128" cy="128" r="82" stroke="#1E3A5F" stroke-width="8"/>
  <path d="M61 154a74 74 0 0 1 0-52" stroke="url(#sf-aqua)" stroke-width="10" stroke-linecap="round"/>
  <path d="M195 102a74 74 0 0 1 0 52" stroke="url(#sf-aqua)" stroke-width="10" stroke-linecap="round"/>
  <path d="M82 93c31-33 61-33 92 0" stroke="#6EE7D8" stroke-width="11" stroke-linecap="round"/>
  <path d="M96 108c21-22 43-22 64 0" stroke="#BFF8EF" stroke-width="10" stroke-linecap="round"/>
  <rect x="79" y="133" width="22" height="42" rx="7" fill="url(#sf-aqua)"/>
  <rect x="111" y="111" width="24" height="64" rx="7" fill="url(#sf-aqua)"/>
  <rect x="146" y="131" width="22" height="44" rx="7" fill="url(#sf-aqua)"/>
  <path d="M74 158c34 33 75 33 109 0" stroke="#1B5C8F" stroke-width="8" stroke-linecap="round"/>
  <path d="M91 177h74" stroke="#EAF3FF" stroke-width="7" stroke-linecap="round" opacity="0.72"/>
</svg>
